<?xml version="1.0" encoding="UTF-8"?><svg id="Layer_1" xmlns="http://www.w3.org/2000/svg" viewBox="0 0 595.28 181.7"><defs><style>.cls-1{fill:#fff;}</style></defs><path class="cls-1" d="M113.44,27.51l-8.99,40c24.78-22.08,53.81-7.78,53.43,25.5-.43,36.79-36.11,69.39-68.43,40.5l-1.66,9.09-34.34,17.91L82.44,27.51h31ZM108.17,84.74c-12.34,2.57-9.81,16.85-13.37,26.31.2,1.61,5.87,4.63,7.58,5.03,29.09,6.75,31.16-36.61,5.79-31.34Z"/><path class="cls-1" d="M201.2,57.77c31.91-4.32,59.83,13,52.79,47.79-11.61,57.37-107.45,49.46-91.26-13.26,4.37-16.91,21.1-32.18,38.47-34.53ZM206.17,84.75c-16.69,3.06-21.66,36.18,4.72,31.71,15.18-2.57,19.61-36.17-4.72-31.71Z"/><path class="cls-1" d="M358.44,141.51c-8.67,2.94-16.28,3.5-25.2,1.7-33.41-6.74-14.66-35.22-12.8-57.7-.41-.41-9.5.3-11.53,0-1.5-.22-1.59.59-1.48-1.5.39-7.48,4.96-16.7,5.02-24.5l14.54-.96c1.8-4.66,2.6-20.44,6.14-22.86l33.31-13.18-8.62,34.92,1.12,2.07h15.5l-6.13,25.87-16.82.18c-.07,11.09-14.33,34.59,6.96,30.95v25Z"/><polygon class="cls-1" points="311.44 27.51 284.94 142.51 256.94 142.51 280.44 27.51 311.44 27.51"/><path class="cls-1" d="M489.44,144.51l-2.01-37.01h13.01s1.49,20.02,1.49,20.02l10.7-19.8,11.65-.07,2.15,19.86c5.4-4.54,6.13-19.87,14.48-20.11l9.5,1.59-18.14,35.36-14.73.05-2.61-19.9-11,20.01h-14.5Z"/><path class="cls-1" d="M395.44,144.51l8.01-36.99h14c-.39,1.78-1.43,3.37.98,3.99,2.99-6.28,14.12-5.86,19.28-2.02,6.98,5.19-1.83,26.44-2.73,34.05l-13.51,1.98c-1.01-5.92,9.51-26.71-.49-26.88s-8.63,19.09-11.52,25.88h-14Z"/><path class="cls-1" d="M482.44,130.51h-25c1.58,6.97,11.04,5.66,15.99,3l2.98,9.96c-10.34,4.28-29.44,3.29-32.53-9.88-7.24-30.84,46.25-38.49,38.57-3.07ZM471.44,121.5c-2.82-5.61-9.56-5.51-12.99-.49l12.99.49Z"/><path class="cls-1" d="M389.18,131.76c5.9,6.41-2.55,17.98-11.31,12.81-9.95-5.88,3.63-21.14,11.31-12.81Z"/></svg>