<?xml version="1.0" encoding="UTF-8"?><svg id="Layer_1" xmlns="http://www.w3.org/2000/svg" viewBox="0 0 200 200"><defs><style>.cls-1{fill:#bedda2;}</style></defs><path class="cls-1" d="M139.99,14.14c9.44-1.61,16.38,5.26,14.75,14.75-.81,4.73-5.99,14.34-8.22,19.21-7.35,16.07-15.37,32.11-24.95,46.93l-34.53-24.08c9.49-12.84,19.67-25.23,30.51-36.96,4.53-4.9,16.54-18.85,22.43-19.86Z"/><path class="cls-1" d="M55,162.01l21.08-32.77c4.29-1.02,7.52-1.08,7.53-6.37.01-8.41-11.42-7.23-12.04-.51-.17,1.82.92,2.49,1.02,3.47.18,1.79-17.97,26.25-20.55,29.52-.44.56-.86,1.38-1.61,1.53,3.94-14.97,4.89-30.43,4.67-45.89l1.06-1.22c6.89-3.24,14.39-10.96,20.94-13.95.64-.29,1.12-.8,1.91-.43l23.34,16.17c-1.72,6.43-3.06,12.95-4.33,19.49-.45,2.31-.05,6.47-2.03,7.68-15.5,4.51-28.89,12.82-40.99,23.3Z"/><path class="cls-1" d="M59.43,185.31c-2.89,2.9-9.88-3.02-12.14-5.03C9.96,147.08,22.02,47.61,80.4,45.41c2.06-.08,14.45.73,14.58,2.59l-3.97,5.16c-2.46,1.21-7.41-.34-9.98-.31-51.26.56-61.71,92.67-29.46,121.46,3.6,3.22,11.44,5.33,7.87,11Z"/><path class="cls-1" d="M151.44,103.86c-.29-.34-6.26-2.44-7.48-3.09-1.88-1-11.84-6.86-11.58-8.49l2.62-5.69,8.39,5.61,9.14,4.61.75-.17c7.42-10.55,23.16-4.34,20.44,8.97-1.84,9.01-16,10.86-20.56,3.1-.77-1.31-1.35-4.39-1.73-4.84Z"/><path class="cls-1" d="M83,78.01l34.27,23.14c-5.33,5.07-9.44,4.59-15.37,1.09-2.82-1.67-16.88-11.22-18.35-13.08-2.83-3.57-1.33-7.26-.55-11.16Z"/></svg>