<?xml version="1.0" encoding="UTF-8"?><svg id="Layer_1" xmlns="http://www.w3.org/2000/svg" viewBox="0 0 200 200"><defs><style>.cls-1{fill:#bedda2;}.cls-2{fill:none;}</style></defs><path class="cls-2" d="M93.11,54.36c-.52-.32-11.18-2.74-11.93-2.77-1.51-.06-2.31.9-3.51,1.92-.48.4-4.52,4.47-2.45,4.47,1.06-.92,2.15-1.37,3.51-1.7,1.04-.25,1.75-.51,2.87-.43.86.07,10.6,2.45,11.07,2.77,1.01.67,1.47,4.63,2.13,5.75l-1.17-9.48c-.19-.14-.35-.42-.53-.53Z"/><path class="cls-2" d="M121.75,58.08c2.28.18-4.17-6.14-4.58-6.28-.21-.07-1.15-.01-1.49,0-1.61.06-8.46,1.6-10.22,2.13-.66.2-1.83.4-2.24.96-2.23,6.54-2.64,13.43-.75,20.12-.11-2.34-.32-15.03,1.06-16.19,5.95-.77,12.76-5.03,18.21-.75Z"/><path class="cls-2" d="M105.57,61.38c3.38-2.81,2.39-.07,3.94.64,2.76,1.26,3.72-1.81,4.05-1.92.18-.06,2.73.52,3.73.43.67-.07,1.16-.34,1.81-.43-3.51-1.89-11.9-3.68-13.52,1.28Z"/><path class="cls-2" d="M90.55,59.68c-3.32-2.92-8.78-1.23-12.46,0,.03.28,1.16.59,1.49.85.64.3,3.55-.7,3.73-.64.31.1.56,2.87,3.62,2.13,1.42-.34,1.21-2.02,1.92-2.13.19-.03,2.58,1.11,2.66,1.7.32-.55-.55-1.55-.96-1.92Z"/><path class="cls-2" d="M99.77,82.52c2.78-.28,2.88-1.79,7.01-.98-1.35-1.67-1.46-3.22-4.36-2.82-.82.11-2.3,1-2.66,1.04-1.08.12-3.24-1.27-4.55-1.38-3.05-.26-3.22,1.35-4.09,3.27,1.03-.37,2-.65,2.57-.68,2.23-.09,4.53,1.71,6.07,1.56Z"/><path class="cls-2" d="M91.55,83.95c-1.89.86-2.79,2.14-3.58,3.27-.68.97-1.27,1.81-2.4,2.3-1.77.76-4.16.32-7.11-1.32l-1.5-.83.57,1.62c.5,1.42,1.78,4.07,4.68,5.76,1.78,1.03,3.57,1.36,5.14,1.36,2.37,0,4.23-.76,4.75-1,2.4-1.09,3.72-2.77,4.22-3.4.65-.83,3.82-5.1,2.12-7.38-1.35-1.81-4.83-1.31-6.88-.37ZM95.28,90.9c-.44.56-1.62,2.06-3.73,3.02-.47.21-4.7,2.01-8.7-.31-1.66-.96-2.71-2.29-3.37-3.44,2.6,1.13,4.81,1.32,6.59.55,1.47-.63,2.22-1.71,2.95-2.75.77-1.09,1.49-2.12,3.06-2.84,1.87-.85,4.53-1.05,5.29-.03.87,1.16-.83,4.17-2.1,5.8Z"/><path class="cls-1" d="M175.4,144.56c-.38-3.8-1.83-6.94-5.86-9.08l-28.97-11.24,6.5,18.07-10.22,3.8,8.31,6.23c-12.09,14.19-26.8,26.94-43.03,38.05l56.14.06c12.1.01,21.48-10.57,20-22.58l-2.87-23.31Z"/><path class="cls-1" d="M54.84,152.35l8.31-6.23-10.01-3.63,6.39-18.16-.53-.09c-11.4,6.66-35.46,7.96-34.61,22.4l-2.15,17.35c-1.74,14.07,9.24,26.48,23.41,26.46l52.22-.06c-16.22-11.12-30.9-23.88-43.03-38.05Z"/><path class="cls-1" d="M141.54,152.52l-10.44-7.44,12.35-3.98c-2.37-7.21-3.85-15.99-9.37-22.14-1.95-2.17-5.18-4.83-8.52-5.19,3.7,7.4.38,16.48-2.34,23.87-5.67,15.4-14.89,30.56-23.32,45.05-4.78-8.27-9.69-16.53-13.95-24.99-4.82-9.57-15.28-30.64-12.99-40.47.17-.75,1.95-3.38,1.38-3.72-12.93,4.46-14.47,17.89-17.79,27.59l12.35,3.98-10.44,7.61c11.92,13.41,25.88,25.75,41.64,36.23,15.42-10.75,29.89-22.83,41.43-36.41Z"/><path class="cls-1" d="M122.26,104.01c-9.51,11.36-34.52,11.74-44.52.69l-.75,10.81c6.88,4.43,15.23,6.96,23.11,9.94,7.77-3.09,16-5.59,22.9-9.94l-.75-11.5Z"/><path class="cls-1" d="M106.18,166.7l.43-2.08-3.19-21.1c-2.46.5-4.28.83-6.71-.09l-3.3,22.57,6.71,11.33,6.07-10.64Z"/><path class="cls-1" d="M124.28,118.28l-.53-.26c-6.44,4.04-14.04,6.56-21.41,9.25,6.14,5.53,9.53,12.59,14.16,18.94,3.98-8.98,8.01-18.24,7.77-27.93Z"/><path class="cls-1" d="M83.71,146.03c4.03-6.5,8.2-13.01,13.74-18.76-7.32-2.79-14.86-5.33-21.41-9.25-.87,9.6,3.3,19.23,7.67,28.02Z"/><polygon class="cls-1" points="94.04 141.62 91.8 138.6 84.88 148.89 90.95 161.08 94.04 141.62"/><path class="cls-1" d="M93.61,136.09c0,.17,1.71,2.87,1.92,3.11,2.42,2.87,6.08,3.28,8.73.35.23-.25,2.15-3.43,2.13-3.63-.05-.51-5.84-7.29-6.5-7.18-.54.09-6.3,6.87-6.28,7.35Z"/><polygon class="cls-1" points="115.12 148.89 108.2 138.77 105.96 141.62 109.05 161.08 115.12 148.89"/><path class="cls-1" d="M67.61,57.18c.08-1.5-.17-2.68.19-4.32.27-1.27,2.03-4.4,2.09-5.19.08-1.01-1.27-4.38-1.33-6.05-.12-3.61,1.26-8.32,5.03-10.12,4.56-2.17,10.9,1.64,15.75,2.59,13.38,2.62,17.44-.37,29.22-2.94,8.41-1.83,11.97,5.14,11.29,11.85-.15,1.48-1.3,3.62-1.14,5.02.13,1.12,1.78,4.02,2.09,5.53.27,1.34-.07,2.83.47,4.06,2.75-13.09,8-29.2-4.36-39.6-4.04-3.4-9.54-5.61-15.33-6.93,2.33,3.32,4.24,7.52,4.33,12.49.04,2.55-.4,4.86-1.07,6.89-.32-2.97-1.32-8.56-5.06-14.34-1.67-2.59-3.51-4.61-5.22-6.2-3.02-.33-6-.45-8.78-.39-.2,0-.4.01-.6.02,3.6,3.5,7.66,8.96,8,16.09.12,2.54-.25,4.87-.86,6.92-.41-2.96-1.58-8.51-5.49-14.18-2.76-3.99-5.89-6.62-8.24-8.25-3.12.48-6.22,1.31-8.86,2.71,4.24,2.47,9.13,6.57,11.22,12.97.79,2.42,1.05,4.77,1.01,6.9-1.18-2.75-3.78-7.79-9.06-12.22-2.52-2.11-5.03-3.57-7.24-4.59-.09.1-.19.19-.28.29-.47.53-1.99,3.28-2.18,3.37-.16.07-1.59.07-1.9.17-5.1,1.74-7.51,4.81-8.25,9.77-1.36,9.09,2.14,19.21,4.17,28.02.44.25.37-.06.38-.35Z"/><path class="cls-1" d="M131.37,68.42c-.59,2.67-1.91,5.5-1.42,8.39,2.71-.29,2.59-2.72,3.51-4.41,1.1-2.01,2.62-4,3.23-6.23.63-2.3,1.39-6.45-.85-8.04-.18.02-.4-.03-.57,0-2.42.48-3.49,8.46-3.89,10.29Z"/><path class="cls-1" d="M67.51,76.29c.34.21,1,.27,1.33.52.42-.14,0-3.47-.09-4.06-.25-1.61-1.02-3.11-1.33-4.5-.38-1.74-1.29-10.47-4.27-10.12-2.38.28-1.23,6.67-.85,8.04.35,1.25,4.5,9.67,5.22,10.12Z"/><path class="cls-1" d="M128.71,65.05c.2-2.95.03-6.11-.38-9.6-.28-2.38-2.25-5.39-2.47-7.26-.3-2.65,1.61-5.88,1.14-9.34-1.34-9.91-12.1-3.34-18.12-2.16-6.46,1.27-12.89,1.27-19.36,0-3.31-.65-10.81-3.8-13.47-3.46-3.55.46-4.72,5.35-4.65,8.04.06,2.33,1.5,4.79,1.14,7.09-.25,1.59-2.02,4.17-2.28,6.05-.28,2.04-.3,5.65-.12,9.35,1.59,1.98,4.3,5.62,6.46,7.49,2.24,1.93,4.4,3.44,6.31,4.62-1.55-.11-4.98-.55-8.45-2.93-1.73-1.18-2.98-2.52-3.88-3.71.26,2.21.59,4.15,1,5.41.36,1.1,6.94,9.82,8.09,10.47,1.01.57,3.28.57,5.4.28-1.02,1.12-1.95,2.27-2.39,2.48-4.38,2.09-8.96-5.66-10.82-8.3-.15.04-.09.28-.09.43-.1,5.68,2.71,13.3,7.18,19.28.08-.32.21-.66.4-1,.74-1.27,1.95-1.68,2.23-1.76-.29.41-.72,1.15-.9,2.15-.26,1.46.16,2.65.41,3.2,1.37,1.5,2.85,2.83,4.42,3.91-.03-1.26.18-2.9,1.15-4.57,1.66-2.84,4.36-3.74,4.98-3.93-.65.92-1.61,2.56-2.01,4.79-.45,2.49,0,4.62.48,6.04,2.82.93,5.48,1.42,7.99,1.57l1.14-13.33.45,13.38c2.88,0,5.53-.5,7.97-1.4.36-1.36.59-3.11.21-5.1-.42-2.24-1.42-3.87-2.1-4.79.65.19,3.47,1.09,5.2,3.93.8,1.31,1.11,2.61,1.19,3.72,1.84-1.19,3.52-2.62,5.03-4.26.12-.56.17-1.25.03-2.01-.19-1-.64-1.73-.94-2.15.29.08,1.56.49,2.33,1.76.09.15.16.3.23.45,3.5-4.49,5.91-10.09,7.21-15.9l.66-4.76c-1.48,1.84-4.07,6.52-7.07,8.28l-.5,1.56c-.46,1.42-1.63,4.07-4.32,5.76-1.65,1.04-3.32,1.38-4.77,1.38-2.2,0-3.93-.77-4.42-1-2.22-1.09-3.44-2.78-3.9-3.41-.37-.51-3.54-5.03-1.95-7.34,1.13-1.65,4.22-1.48,6.43-.38,1.75.87,2.58,2.15,3.31,3.28.63.97,1.17,1.81,2.19,2.29,1.59.75,3.77.3,6.46-1.32l.69-.42c-.96.39-1.96.45-2.98-.01-1.03-.48-1.8-1.44-2.72-2.49,2.68.74,5.53.38,8.09-2.48,3.67-4.09,5.31-7.94,6.46-12.06-1.06.89-2.36,1.81-3.98,2.65-4.6,2.38-9.15,2.82-11.2,2.93,2.53-1.18,5.4-2.69,8.36-4.62,2.55-1.66,5.66-4.71,7.8-6.77ZM103.22,54.89c.4-.55,1.58-.76,2.24-.96,1.76-.53,8.61-2.07,10.22-2.13.34-.01,1.28-.07,1.49,0,.4.14,6.86,6.46,4.58,6.28-5.45-4.29-12.26-.02-18.21.75-1.38,1.16-1.18,13.85-1.06,16.19-1.9-6.69-1.49-13.58.75-20.12ZM75.22,57.98c-2.07,0,1.97-4.07,2.45-4.47,1.2-1.02,2-1.97,3.51-1.92.75.03,11.4,2.45,11.93,2.77.18.11.34.39.53.53l1.17,9.48c-.66-1.12-1.12-5.08-2.13-5.75-.48-.32-10.22-2.7-11.07-2.77-1.12-.09-1.83.17-2.87.43-1.36.33-2.45.78-3.51,1.7ZM83.31,59.89c-.18-.06-3.09.94-3.73.64-.33-.26-1.46-.57-1.49-.85,3.68-1.23,9.14-2.92,12.46,0,.41.36,1.28,1.37.96,1.92-.08-.6-2.47-1.73-2.66-1.7-.71.11-.5,1.79-1.92,2.13-3.06.74-3.31-2.03-3.62-2.13ZM96.31,91.71c-.5.63-1.82,2.32-4.22,3.4-.52.24-2.38,1-4.75,1-1.57,0-3.36-.33-5.14-1.36-2.91-1.69-4.18-4.33-4.68-5.76l-.57-1.62,1.5.83c2.95,1.64,5.35,2.09,7.11,1.32,1.13-.49,1.72-1.33,2.4-2.3.79-1.13,1.69-2.41,3.58-3.27,2.05-.93,5.53-1.43,6.88.37,1.7,2.28-1.47,6.55-2.12,7.38ZM99.77,82.52c-1.55.16-3.84-1.65-6.07-1.56-.57.02-1.54.3-2.57.68.86-1.92,1.04-3.53,4.09-3.27,1.32.11,3.48,1.5,4.55,1.38.36-.04,1.84-.93,2.66-1.04,2.89-.39,3,1.15,4.36,2.82-4.13-.81-4.23.7-7.01.98ZM117.28,60.53c-1,.1-3.55-.48-3.73-.43-.33.1-1.29,3.17-4.05,1.92-1.55-.71-.56-3.45-3.94-.64,1.63-4.96,10.01-3.16,13.52-1.28-.65.08-1.14.36-1.81.43Z"/><path class="cls-1" d="M92.09,85.14c-1.57.72-2.29,1.75-3.06,2.84-.73,1.04-1.48,2.11-2.95,2.75-1.79.77-4,.58-6.59-.55.65,1.15,1.71,2.48,3.37,3.44,3.99,2.32,8.23.52,8.7.31,2.11-.96,3.28-2.46,3.73-3.02,1.27-1.62,2.97-4.63,2.1-5.8-.76-1.02-3.42-.82-5.29.03Z"/><path class="cls-1" d="M111.17,90.81c-1.37-.64-2.06-1.72-2.74-2.76-.7-1.09-1.37-2.11-2.8-2.82-.9-.45-2-.71-2.94-.71-.82,0-1.51.2-1.83.67-.81,1.18.76,4.21,1.94,5.84.41.56,1.49,2.06,3.41,3.01.7.34,4.36,1.94,7.92-.3,1.51-.95,2.48-2.27,3.08-3.41-2.37,1.1-4.4,1.27-6.04.5Z"/></svg>