<?xml version="1.0" encoding="UTF-8"?><svg id="Layer_1" xmlns="http://www.w3.org/2000/svg" viewBox="0 0 200 200"><defs><style>.cls-1{fill:#bedda2;}</style></defs><path class="cls-1" d="M75.85,148.83v-4.76c0-2.23.57-4.33,1.57-6.16H31.94c-2.29,0-4.15-1.86-4.15-4.15s1.86-4.15,4.15-4.15h56.56c1.31,0,2.46.62,3.22,1.57h3.66c-4-2.4-8-4.84-11.88-7.23-3.55-2.18-7.2-4.42-10.82-6.6h-37.37c-2.29,0-4.15-1.86-4.15-4.15s1.86-4.15,4.15-4.15h31.96c-.22-3.12.92-6.53,3.46-9.78,2.02-2.58,4.97-4.08,8.16-4.19l.62-1.03h-39.33c-2.29,0-4.15-1.86-4.15-4.15s1.86-4.15,4.15-4.15h44.37l8.06-13.29h-47.55c-2.29,0-4.15-1.86-4.15-4.15s1.86-4.15,4.15-4.15h49.46c-.25-2.56.43-5.75,3.15-9.5,1.81-2.5,4.37-4.1,7.2-4.51.61-.09,1.18-.13,1.74-.13h0c2.64,0,4.44.99,5.88,1.78l.05.03c3.47,1.9,7.07,4.01,10.65,6.17l.58-3c1.35-7-4.54-13.42-12.31-13.42H45.43c-6.07,0-11.26,3.99-12.31,9.46l-18.07,93.99c-1.35,7,4.54,13.42,12.31,13.42h52.82c-2.65-2.36-4.32-5.79-4.32-9.6Z"/><path class="cls-1" d="M152.68,137.75h-63.95c-.48,0-.95.06-1.4.16-2.81.64-4.92,3.15-4.92,6.16v4.76c0,3.48,2.83,6.32,6.32,6.32h63.95c3.48,0,6.32-2.83,6.32-6.32v-4.76c0-3.48-2.83-6.32-6.32-6.32Z"/><path class="cls-1" d="M75.07,102.66c-1.49,1.9-2.63,4.23-2.27,6.39.18,1.08.73,2.11,1.8,3.02,2.9,1.74,5.79,3.51,8.68,5.28,5.64,3.46,11.28,6.95,16.97,10.33,2.25,1.33,5.03,3.5,7.69,3.5.4,0,.8-.05,1.19-.16.76-.21,1.51-.65,2.21-1.39,2.28-2.41,3.94-6.42,1.58-9.17l-1.24-.74-.34-.21-29.9-17.96-1.52-.92c-.22-.03-.44-.06-.66-.06-1.61,0-3.13.75-4.18,2.1Z"/><path class="cls-1" d="M109.87,56.65c-1.25-.68-2.04-1.13-3.28-1.13-.29,0-.6.02-.95.07-1.48.21-2.66,1.1-3.52,2.29-1.43,1.97-2.5,4.18-2.06,6.26.15.72.49,1.42,1.05,2.09l1.24.75,1.9,1.15,15.21,9.18,13.03,7.86,1.08.65.16.25c.34.09.67.13,1,.13,3.71,0,7.04-5.14,6.6-8.36-.39-2.86-3.07-3.98-5.23-5.34-4.5-2.83-9.26-5.83-14.04-8.74-4.1-2.5-8.21-4.93-12.19-7.11Z"/><path class="cls-1" d="M182.9,131.7c-1.54-2.12-6.39-5.02-8.75-6.57-9.16-6-19.03-11.51-28.72-16.62-4.39-2.32-9.74-5.42-14.25-7.24-.15-.06-.37-.19-.55-.19-.06,0-.11.01-.15.04-.17.34-.79,1.64-1.17,1.64,0,0-.02,0-.02,0l-5.45-2.34.08-.49c1.52-2.98,4.18-6.1,5.56-9.06.08-.17.18-.39.22-.6.02-.13.02-.27-.05-.38l-11.3-6.81-17.71-10.68-1.14-.69-.13.22-.32.52-8.06,13.29-5.03,8.3-1.49,2.45-.19.32,28.17,16.92,2.07,1.24.35-.12.1-.03,5.65-9.46.55-.24,4.58,3.68-.86,1.9c9.87,7.21,19.92,14.25,30.31,20.72,1.83,1.14,3.66,2.26,5.51,3.36.54.32,1.23.73,1.99,1.19,4.23,2.53,11.27,6.66,14.36,6.89.2.02.41.02.62.02,2.51,0,5.34-1.06,7.41-2.32.26-3-.41-6.41-2.19-8.86Z"/></svg>