<?xml version="1.0" encoding="UTF-8"?><svg id="Layer_1" xmlns="http://www.w3.org/2000/svg" viewBox="0 0 595.28 181.7"><defs><style>.cls-1{fill:#fff;}</style></defs><polygon class="cls-1" points="71.12 40.57 150.73 139.56 150.73 40.57 237.14 40.57 237.14 56.81 168.01 56.81 168.01 82.47 223.53 82.47 223.53 98.18 168.01 98.18 168.01 124.89 237.14 124.89 237.14 141.13 130.04 141.13 66.41 62.57 66.41 140.61 49.13 140.61 49.13 40.57 71.12 40.57"/><polygon class="cls-1" points="280.35 40.57 309.16 76.72 337.87 41.27 339.01 40.57 360.74 40.57 321.03 90.69 360.74 141.13 338.48 141.13 258.09 40.57 280.35 40.57"/><polygon class="cls-1" points="466.01 40.57 466.01 56.81 431.45 56.81 431.45 141.13 414.69 141.13 414.69 56.81 379.6 56.81 379.6 40.57 466.01 40.57"/><path class="cls-1" d="M258.09,141.13l33.84-42.4c.65-.14,1.13.62,1.53,1.01,1.85,1.8,5.38,6.43,7.04,8.67.69.93,2.62,3.07,2.52,4.09l-22.67,28.62h-22.26Z"/><path class="cls-1" d="M513.67,127.51h7.33c.51,9.3,19.94,7.98,17.05-1.07-1.21-3.78-11.08-4.86-14.7-6.25s-7.27-3.33-8.27-7.44c-3.99-16.38,23.27-20.6,29.35-7.88,3.02,6.32-.76,4.79-5.81,4.76-.93-.32-1.04-2.15-1.66-3.05-3.82-5.63-17.91-2.05-13.89,4.99,3.21,5.61,21.84,2.71,23.02,15.22,1.69,17.97-32.71,18.51-32.42.72Z"/><path class="cls-1" d="M506.86,98.18v31.69c0,.72-1.65,4.34-2.18,5.15-6.03,9.12-25.8,6.49-24.53-6.46h7.33c.31,4.68,5.2,7.22,9.18,4.73.73-.46,2.34-2.68,2.34-3.42v-31.69h7.86Z"/><path class="cls-1" d="M469.03,131.28c5.5-1.05,7.56,7.53,2.37,8.69-6.85,1.54-8.14-7.59-2.37-8.69Z"/></svg>