<?xml version="1.0" encoding="UTF-8"?><svg id="Layer_1" xmlns="http://www.w3.org/2000/svg" viewBox="0 0 200 200"><defs><style>.cls-1{fill:#bedda2;}</style></defs><path class="cls-1" d="M156.15,41.88H43.85c-11.48,0-20.78,9.3-20.78,20.78v74.67c0,11.48,9.3,20.78,20.78,20.78h112.3c11.48,0,20.78-9.3,20.78-20.78V62.66c0-11.48-9.3-20.78-20.78-20.78ZM145.05,136.43H52.78c-3.95,0-7.16-3.2-7.16-7.16s3.2-7.16,7.16-7.16h92.27c3.95,0,7.16,3.2,7.16,7.16s-3.2,7.16-7.16,7.16ZM97.67,61.18c11.86,0,21.47,9.61,21.47,21.47s-9.61,21.47-21.47,21.47c-6.39,0-12.1-2.8-16.04-7.23-3.37-3.79-5.43-8.77-5.43-14.24s2.14-10.64,5.63-14.45c3.93-4.3,9.56-7.01,15.84-7.01ZM65.79,60.97c4.58,0,8.82,1.45,12.31,3.89-4.28,4.71-6.92,10.94-6.92,17.79s2.54,12.86,6.69,17.53c-3.44,2.34-7.59,3.72-12.07,3.72-11.86,0-21.47-9.61-21.47-21.47s9.61-21.47,21.47-21.47Z"/></svg>