<svg width="291" height="75" viewBox="0 0 291 75" fill="none" xmlns="http://www.w3.org/2000/svg">
<path d="M60.8956 0H21.3164L29.7462 10.4439H56.8205V15.9508H69.7662V10.4439" fill="#6AD040"/>
<path d="M24.8647 10.4439L16.4241 0H9.12334H0.5L29.6172 35.9781L45.5413 36.0318L24.8647 10.4439Z" fill="#6AD040"/>
<path d="M30.2301 38.7531L4.60741 70.4181L1.11292 74.7311H7.06968H15.5747H17.0371L25.4776 64.2873L46.1543 38.6993L30.2301 38.7531Z" fill="#6AD040"/>
<path d="M70.1856 64.2872H57.2398H30.7892L22.3487 74.7311H20.8864H57.1968H70.1856" fill="#6AD040"/>
<path d="M80.0132 75V19.2421H91.8622V75H80.0132Z" fill="#DFE2F2"/>
<path d="M109.969 75C107.905 75 105.991 74.4837 104.238 73.4512C102.485 72.4186 101.088 71.0311 100.055 69.2672C99.0232 67.514 98.5071 65.5994 98.5071 63.5343V30.697C98.5071 28.5781 99.0232 26.6528 100.055 24.9319C101.088 23.2002 102.485 21.8235 104.238 20.7909C105.991 19.7583 107.905 19.2421 109.969 19.2421H142.72C144.839 19.2421 146.763 19.7583 148.484 20.7909C150.215 21.8235 151.602 23.2109 152.666 24.9319C153.72 26.6635 154.258 28.5888 154.258 30.697V35.9673H142.108V31.3208H110.517V62.9213H142.108V54.5533H130.033V42.4745H154.268V63.5343C154.268 65.5994 153.742 67.514 152.677 69.2672C151.623 71.0204 150.226 72.4186 148.494 73.4512C146.763 74.4837 144.839 75 142.731 75H109.98H109.969Z" fill="#DFE2F2"/>
<path d="M162.774 75V19.2421H175.16L194.052 41.7754L212.868 19.2421H225.33V75H213.256V37.5914L194.052 60.512L174.773 37.6667V74.9892H162.774V75Z" fill="#DFE2F2"/>
<path d="M234.76 30.7077C234.76 28.5888 235.276 26.6636 236.308 24.9426C237.341 23.211 238.738 21.8342 240.491 20.8017C242.244 19.7691 244.158 19.2528 246.222 19.2528H278.974C281.092 19.2528 283.006 19.7691 284.737 20.8017C286.468 21.8342 287.855 23.2217 288.919 24.9426C289.973 26.6743 290.511 28.5996 290.511 30.7077V75H278.361V57.0379H246.77V75H234.771V30.7077H234.76ZM278.35 44.9484V31.3208H246.76V44.9484H278.35Z" fill="#DFE2F2"/>
<path d="M70.2071 64.3625L70.4544 39.549H49.5735L70.2071 64.3625Z" fill="#6AD040"/>
</svg>
