<svg width="74" height="89" viewBox="0 0 74 89" fill="none" xmlns="http://www.w3.org/2000/svg">
<g clip-path="url(#clip0_22_374)">
<path d="M57.6445 11.8495C58.3643 13.7181 58.957 15.653 59.2873 17.6293C59.9181 21.3748 59.5244 24.1507 58.5844 27.776C57.526 31.857 55.9425 35.8055 54.9475 39.9031C52.0177 41.635 48.3892 42.6749 44.9936 43.1017C43.9352 43.2343 40.311 43.5823 39.5404 43.0644C39.3753 42.9359 39.4727 42.9608 39.5404 42.8614C39.7267 42.5838 40.1247 42.3766 40.3364 42.1653C42.7328 39.7457 44.4305 36.3027 44.4941 32.8928C44.6253 25.3108 37.3176 24.0223 33.4605 29.9843C31.5722 32.9053 31.1954 36.4767 31.0557 39.8576C30.0438 38.5856 29.2266 37.0609 28.8667 35.4782C28.0369 31.8405 29.5484 28.7289 27.0885 25.4019C25.4542 23.1895 23.0197 22.6219 24.4677 19.2534C24.6921 18.7314 25.7294 17.1446 26.2671 17.041C32.1904 17.2191 38.3168 16.5272 44.1384 15.479C46.6068 15.0357 49.2233 14.5136 51.6366 13.8507C53.6816 13.2914 55.6292 12.4876 57.6403 11.8495H57.6445Z" fill="#B7FFAB"/>
<path d="M65.9852 64.7209C61.5989 64.5842 57.1237 66.229 53.2454 68.0934C44.223 72.4272 35.8399 80.1336 26.555 83.4398C24.7852 84.0696 23.2356 84.1939 21.5505 84.6538C20.1533 85.0391 21.6267 85.4534 22.3084 85.5032C31.9024 86.2324 45.2476 75.4683 53.6985 71.0807C57.818 68.9428 64.8209 65.7442 69.3893 67.6501C71.2522 68.429 73.3691 70.3681 74.0042 72.2532C69.9227 72.4314 65.8413 73.5045 62.0054 74.8261C47.5805 79.8021 33.3207 91.4818 17.1388 88.5235C15.6485 88.2501 12.3926 87.525 12.5873 85.5612C12.6932 84.4922 13.849 82.4248 14.3952 81.4221C15.9491 78.5757 17.8247 75.8827 19.6029 73.173C19.7469 74.7888 17.6934 77.8838 18.138 79.2925C18.3624 80.001 19.5733 80.1916 20.2126 80.1957C27.1265 80.2164 37.7409 71.4743 43.3551 67.5921C47.6016 64.6546 55.3031 59.5667 60.6166 60.0349C62.9792 60.2421 65.6761 62.3634 65.981 64.7209H65.9852Z" fill="#B7FFAB"/>
<path d="M25.2764 15.0025L24.184 15.2138C23.3626 15.073 22.5286 15.0937 21.703 14.9901C17.8205 14.4971 14.0015 12.7859 10.2884 11.6424C10.1698 11.746 10.8134 12.3219 10.9108 12.4089C11.8422 13.2334 13.3664 13.9709 14.518 14.4805C17.5792 15.8353 20.7884 16.5314 24.1332 16.838C23.5405 17.8033 22.7995 18.9593 22.6175 20.0904C22.0374 23.7281 24.7133 24.1963 26.2586 26.7278C28.4391 30.2951 26.7709 34.8401 24.184 37.7238C23.3626 38.6436 22.3084 39.3935 21.4743 40.2677C19.8401 41.9789 18.5445 44.0463 17.5707 46.1801C17.1769 46.2547 17.4818 45.7989 17.4606 45.5337C17.3802 44.5104 16.9356 43.6693 16.0126 43.1721C15.6062 42.9525 14.4037 42.4346 14.463 43.2135C15.5299 43.5574 15.242 45.2189 14.0904 45.0573C12.9007 44.8915 10.8557 42.3062 9.34846 42.2067C9.33999 41.8049 9.67024 41.5065 9.73798 41.1171C9.98778 39.6587 8.64563 38.3287 7.15954 38.8508C7.0918 39.1574 7.46438 39.0331 7.71841 39.1656C8.91237 39.8037 8.38313 42.2109 7.367 41.9623C6.76155 41.8131 6.23655 41.0839 5.33896 40.9845C3.68351 40.8063 2.70971 41.9084 1.30406 41.6723C0.296395 41.5065 -0.198971 40.5453 0.0762326 39.6048C0.474219 38.2334 2.1085 35.8635 2.84097 34.4673C3.30246 33.5848 4.83936 30.9124 4.96638 30.1293C5.18654 28.7704 3.64117 28.2152 3.3575 27.1338C3.16698 26.417 3.62 25.5594 3.8825 24.8923C5.48715 20.8154 7.69301 16.8297 9.66177 12.9102L9.64483 12.7818C8.67951 12.1851 7.78192 11.1203 8.28575 9.94368C9.30189 7.56963 13.9041 9.79452 15.5596 10.5072C18.8366 11.92 21.9231 13.7554 25.2764 15.0108V15.0025ZM10.8049 28.2483C12.2106 27.776 13.4765 26.9184 15.0261 27.0219C15.7035 27.0675 16.5461 27.3285 17.1854 27.5605C17.8247 27.7926 19.9205 28.9858 20.4116 28.8449C20.8985 28.7041 20.581 28.3478 20.382 28.0992C19.5945 27.1214 15.8898 24.3703 14.6832 24.2004C13.0108 23.9643 11.3892 24.5402 9.86923 25.1451C9.07326 25.4599 6.07566 26.7443 6.01639 27.5937C5.92324 29.0024 8.99281 30.1666 10.1783 30.1873C9.80996 31.1154 10.4535 32.1388 11.114 32.7851C10.6144 32.8473 10.3053 33.419 10.9573 33.4563C12.363 33.5392 14.662 32.2465 15.3479 31.0118C15.6104 30.9373 16.8933 31.4883 17.3251 31.5049C18.1846 31.538 17.215 30.6555 16.9398 30.4484C15.2928 29.222 12.9176 28.8947 10.9616 28.4513C10.8007 28.414 10.7795 28.5218 10.8049 28.2525V28.2483Z" fill="#B7FFAB"/>
<path d="M54.6341 42.3062C54.3208 45.6622 55.0491 49.2668 55.9128 52.515C56.315 54.0231 56.8569 55.4857 57.2973 56.9814C53.9228 57.8017 50.6712 59.0861 47.6906 60.8304C40.1881 65.2222 33.253 72.4024 25.3102 75.8122C24.0781 76.3384 22.6767 76.8977 21.3176 76.8439C22.0035 74.967 22.4565 73.0487 22.7614 71.0765C22.8376 70.5794 22.7995 69.4731 23.0408 69.1085C27.3382 65.8685 31.4366 62.2557 33.651 57.2797C35.3742 53.4017 35.5435 49.0803 34.7475 44.9578C35.9373 45.0987 36.9195 44.6098 37.906 44.0505C39.3794 45.9232 42.3347 45.426 44.4643 45.1484C47.9785 44.6885 51.3867 43.6693 54.6299 42.3103L54.6341 42.3062Z" fill="#B7FFAB"/>
<path d="M38.8926 27.7636C43.3721 27.2954 43.3678 33.3196 42.3983 36.1867C41.4414 39.0165 38.2279 42.8987 35.0101 43.2177C33.0329 43.4124 32.7662 42.6832 32.5672 40.9265C32.0972 36.7709 33.4944 28.327 38.8926 27.7636ZM40.9969 33.7463C41.1874 33.6883 41.2721 33.4563 41.3017 33.2823C41.7547 30.5146 39.7013 28.5839 37.2456 30.6389C36.4242 31.3267 35.3658 32.9757 35.1879 34.0281C35.0652 34.7448 35.3531 34.5253 35.6367 34.865C36.1998 35.5403 36.4496 36.3068 35.9416 37.1065C35.4631 37.8522 34.1887 38.2293 34.773 39.3272C36.2634 39.8451 38.0162 38.0138 38.5158 36.7709C39.0154 35.5279 39.1297 34.3388 37.9696 33.3983C37.8045 33.2657 37.4615 33.2491 37.4531 32.9881C38.6851 30.2412 40.7809 30.8834 40.9926 33.7463H40.9969Z" fill="#B7FFAB"/>
<path d="M39.7478 13.7761C38.5115 13.83 37.1609 14.236 35.9458 14.2857C35.1371 14.3189 32.9101 12.9309 32.0803 12.4669C27.3637 9.84836 22.8969 6.66224 17.6554 5.08783L15.8052 4.60722C16.8044 4.29648 17.7951 3.86973 18.8239 3.63771C20.6742 3.22339 22.2068 3.81172 23.9512 4.42906C28.2528 5.94961 32.1141 8.38167 35.8273 10.9422C37.1482 11.8537 38.4988 12.79 39.7521 13.7761H39.7478Z" fill="#B7FFAB"/>
<path d="M45.5779 12.8605C44.3416 12.9889 43.0672 13.4364 41.8266 13.3245C36.945 10.1053 32.3639 6.37638 26.9106 4.08105L22.7826 2.57292C24.311 2.24976 26.0385 1.63656 27.6219 1.75671C30.0776 1.94316 33.6849 3.8076 35.7891 5.07541C39.3202 7.20502 42.7115 9.93953 45.5863 12.8605H45.5779Z" fill="#B7FFAB"/>
<path d="M50.3665 11.9448C49.7102 11.9117 47.7287 12.6243 47.2461 12.4047C46.9751 12.2804 45.7346 10.9008 45.3705 10.5693C41.9495 7.45361 38.2279 4.57409 34.0448 2.49835L30.0649 0.940508L34.3877 0.534474C39.3753 0.447467 45.4424 5.59746 48.4909 9.14404C48.7618 9.45892 50.6036 11.7004 50.3665 11.9407V11.9448Z" fill="#B7FFAB"/>
<path d="M32.9778 14.4929C33.0075 14.6255 32.7831 14.6586 32.6942 14.6711C29.3282 15.1475 27.4992 14.6918 24.51 13.3577C19.9374 11.3151 15.9533 8.34855 10.86 7.45776C10.6906 7.42876 10.6779 7.52405 10.7033 7.25889C11.9735 6.76585 12.9346 5.73005 14.3868 5.84606C15.3818 5.92478 16.7705 6.33496 17.7358 6.6457C23.1891 8.40241 27.8125 12.1271 32.9821 14.4971L32.9778 14.4929Z" fill="#B7FFAB"/>
<path d="M51.8397 11.4228C49.1639 7.14701 45.0867 3.10739 40.4082 0.957071C39.8282 0.691906 39.1931 0.517892 38.6215 0.25687C38.4733 0.190579 38.3379 0.319018 38.3929 0.0248514C40.9248 0.0994289 43.2407 -0.335607 45.6117 0.754054C49.5831 2.57292 52.6357 6.72854 54.0964 10.677L51.8397 11.4269V11.4228Z" fill="#B7FFAB"/>
<path d="M22.1518 41.7966C22.2873 42.3601 22.3 42.9442 22.4312 43.5119C23.0663 46.2422 25.5982 48.3304 26.9615 50.7956C28.5534 53.671 29.4849 57.7272 26.5804 60.1344C26.6016 58.8168 26.7286 57.5697 26.4831 56.2563C25.8395 52.8548 23.4135 50.9158 21.8258 48.0777C20.7927 46.2257 19.785 43.5036 21.8427 41.9457C21.9486 41.867 21.974 41.751 22.156 41.7924L22.1518 41.7966Z" fill="#B7FFAB"/>
<path d="M29.65 54.2759C29.4934 52.6766 28.5407 50.6423 27.6728 49.2833C26.1952 46.9631 22.283 43.2094 23.7988 40.2014C23.9004 40.0025 24.781 38.888 24.9631 39.0496C25.2044 40.2801 25.5643 41.5024 26.1571 42.6169C26.9784 44.154 28.2571 45.4177 29.1716 46.901C30.6958 49.3703 31.9914 53.4389 30.2131 56.0533C30.0946 56.2273 29.8829 56.5836 29.65 56.5712C29.5992 55.8296 29.722 55.0092 29.65 54.28V54.2759Z" fill="#B7FFAB"/>
<path d="M14.6536 50.6589C15.5935 55.6266 16.7112 61.0749 21.7326 63.6022L21.6691 63.8135C18.9129 65.6738 15.5765 62.3883 14.463 60.0722C13.0785 57.1886 13.6925 54.2552 12.8838 51.2762L14.6536 50.663V50.6589Z" fill="#B7FFAB"/>
<path d="M23.9215 62.0692V60.4907C23.9215 58.3942 21.6945 55.5727 20.6741 53.7828C19.6156 51.9184 18.7561 49.8468 18.2904 47.7545L19.5436 45.6663C20.3142 50.1658 24.9292 52.9293 25.361 57.549C25.4626 58.647 25.433 60.1468 24.8741 61.1204C24.6963 61.427 24.2898 61.9947 23.9173 62.0692H23.9215Z" fill="#B7FFAB"/>
<path d="M17.2573 48.8276C17.7146 50.2487 18.1973 51.6822 18.8366 53.0412C20.2634 56.0782 23.1552 58.9162 22.5666 62.4794C17.7696 60.2504 16.69 54.8269 15.6908 50.199C15.6993 49.8799 16.69 49.1342 16.9991 48.9311C17.0837 48.8731 17.0964 48.7861 17.2573 48.8317V48.8276Z" fill="#B7FFAB"/>
<path d="M11.8421 51.7817C12.3079 53.6627 12.0919 55.61 12.3798 57.52C12.9091 60.9961 14.9964 64.3604 18.6121 65.3299C18.5613 65.4749 18.2311 65.6241 18.0914 65.6862C16.8297 66.2207 15.8982 66.1461 14.6873 65.5537C11.6897 64.087 10.3645 60.6605 10.1782 57.5366C10.0681 55.726 10.6313 53.9403 10.2756 52.1463L11.8379 51.7858L11.8421 51.7817Z" fill="#B7FFAB"/>
<path d="M32.148 51.6781C32.0464 49.6189 31.1826 47.6219 30.1072 45.8776C28.9683 44.0339 27.2451 42.4098 26.6778 40.2677C26.2036 38.4613 26.4618 36.7833 27.406 35.1716C27.5161 35.7558 27.6431 36.3358 27.8209 36.9035C29.3282 41.6806 33.325 43.4 32.872 49.2875C32.8169 50.0208 32.6095 51.0939 32.1395 51.6781H32.148Z" fill="#B7FFAB"/>
<path d="M9.13668 52.2913C10.0808 56.5588 5.80884 60.2172 7.36692 64.464C7.82841 65.7277 8.54817 66.403 9.66169 67.1115C9.78447 67.1902 9.92842 67.0866 9.86915 67.3642C7.91732 67.5714 5.84695 66.4113 5.13565 64.6132C3.4802 60.4451 7.72256 56.4718 7.89192 52.3907L9.13668 52.2913Z" fill="#B7FFAB"/>
<path d="M15.9067 44.9537L16.1184 45.0117C16.6138 46.5571 14.9541 47.9368 13.4595 47.9161C12.7313 47.9036 11.3595 47.3857 10.7329 47.0129C10.1063 46.64 8.60326 44.962 7.947 45.0531C7.29075 45.1443 8.24337 46.2464 8.46354 46.4867C8.80648 46.8596 9.26798 47.0874 9.55588 47.5018C8.11636 47.568 6.19417 46.8471 5.9359 45.2893C5.6353 43.4497 6.66837 43.2923 8.25608 43.4248C10.1656 43.5823 11.1013 44.8087 12.6085 45.5835C13.8363 46.2174 15.3055 46.4452 15.9067 44.9537Z" fill="#B7FFAB"/>
<path d="M6.63453 52.4984C6.51599 55.5727 4.20851 58.0213 3.74278 61.0169C3.55649 62.2225 3.51415 63.5442 3.88674 64.7167C4.06033 65.2553 4.54722 65.8395 4.66154 66.2C4.78856 66.6102 3.95871 66.0011 3.8825 65.939C-0.584255 62.4711 3.1204 57.7479 4.75045 54.1599C4.8944 53.845 5.26699 52.5813 5.33473 52.4902C5.53372 52.2291 6.32969 52.4902 6.63453 52.4984Z" fill="#B7FFAB"/>
<path d="M56.8104 9.69092L55.3666 10.213C54.2446 6.47994 51.6535 3.24825 48.495 0.940491C50.7982 1.57854 52.8898 2.63092 54.3674 4.51193C55.4979 5.94962 56.5309 7.9052 56.8104 9.68678V9.69092Z" fill="#B7FFAB"/>
<path d="M14.446 66.8588C11.9353 67.4637 9.03087 66.055 8.43813 63.5193C8.04437 61.8372 8.73026 60.1261 9.13672 58.5061L9.62785 61.1287C10.191 63.1589 11.3214 64.8949 13.1208 66.0674C13.5611 66.3533 14.0988 66.4983 14.446 66.8588Z" fill="#B7FFAB"/>
<path d="M12.4688 49.6438L10.1783 50.5097C9.06054 50.7915 6.0079 51.4129 5.195 50.4931C4.63189 49.8592 5.09762 49.1217 5.80468 48.8773C6.51174 48.6328 7.7692 48.7489 8.54824 48.84C9.87345 48.9892 11.1606 49.3952 12.4646 49.6438H12.4688Z" fill="#B7FFAB"/>
<path d="M5.38972 43.2218C5.32621 43.5119 5.08488 43.6693 4.95363 43.9676C4.53871 44.8957 4.80544 45.9771 5.30081 46.8223C5.44899 47.0709 5.89779 47.2822 5.33468 47.3029C3.13305 47.3816 3.42943 43.226 5.38972 43.226V43.2218Z" fill="#B7FFAB"/>
<path d="M14.3445 30.5892C13.9168 31.4096 13.0447 31.8653 12.2614 32.3211C12.1979 32.2506 12.7144 31.5463 12.7567 31.3309C12.8287 30.9911 12.7568 30.6265 12.7822 30.2826L14.3445 30.5892Z" fill="#B7FFAB"/>
</g>
<defs>
<clipPath id="clip0_22_374">
<rect width="74" height="89" fill="white"/>
</clipPath>
</defs>
</svg>
