<?xml version="1.0" encoding="UTF-8"?><svg id="Layer_1" xmlns="http://www.w3.org/2000/svg" viewBox="0 0 200 200"><defs><style>.cls-1{fill:#ffffff;}</style></defs><path class="cls-1" d="M145.79,39.05c1.33,3.46,2.43,7.05,3.04,10.71,1.17,6.94.44,12.09-1.3,18.8-1.96,7.56-4.9,14.88-6.74,22.48-5.43,3.21-12.15,5.14-18.45,5.93-1.96.25-8.68.89-10.11-.07-.31-.24-.13-.19,0-.38.35-.51,1.08-.9,1.48-1.29,4.44-4.48,7.59-10.87,7.71-17.18.24-14.05-13.3-16.44-20.45-5.39-3.5,5.41-4.2,12.03-4.46,18.3-1.88-2.36-3.39-5.18-4.06-8.12-1.54-6.74,1.26-12.51-3.3-18.67-3.03-4.1-7.54-5.15-4.86-11.39.42-.97,2.34-3.91,3.33-4.1,10.98.33,22.33-.95,33.12-2.89,4.57-.82,9.42-1.79,13.9-3.02,3.79-1.04,7.4-2.53,11.13-3.71h0Z"/><path class="cls-1" d="M161.24,137.04c-8.13-.25-16.42,2.79-23.61,6.25-16.72,8.03-32.26,22.31-49.46,28.44-3.28,1.17-6.15,1.4-9.27,2.25-2.59.71.14,1.48,1.4,1.57,17.78,1.35,42.51-18.6,58.17-26.73,7.63-3.96,20.61-9.89,29.08-6.36,3.45,1.44,7.38,5.04,8.55,8.53-7.56.33-15.13,2.32-22.24,4.77-26.73,9.22-53.16,30.87-83.15,25.39-2.76-.51-8.8-1.85-8.43-5.49.2-1.98,2.34-5.81,3.35-7.67,2.88-5.28,6.36-10.27,9.65-15.29.27,2.99-3.54,8.73-2.71,11.34.42,1.31,2.66,1.67,3.84,1.67,12.81.04,32.48-16.16,42.89-23.36,7.87-5.44,22.14-14.87,31.99-14.01,4.38.38,9.38,4.32,9.94,8.68h0Z"/><path class="cls-1" d="M85.8,44.9l-2.02.39c-1.52-.26-3.07-.22-4.6-.41-7.19-.91-14.27-4.08-21.15-6.2-.22.19.97,1.26,1.15,1.42,1.73,1.53,4.55,2.89,6.68,3.84,5.67,2.51,11.62,3.8,17.82,4.37-1.1,1.79-2.47,3.93-2.81,6.03-1.07,6.74,3.88,7.61,6.75,12.3,4.04,6.61.95,15.03-3.84,20.38-1.52,1.7-3.48,3.09-5.02,4.71-3.03,3.17-5.43,7-7.23,10.96-.73.14-.16-.71-.2-1.2-.15-1.9-.97-3.46-2.68-4.38-.75-.41-2.98-1.37-2.87.08,1.98.64,1.44,3.72-.69,3.42-2.2-.31-5.99-5.1-8.79-5.28-.02-.74.6-1.3.72-2.02.46-2.7-2.02-5.17-4.78-4.2-.13.57.56.34,1.04.58,2.21,1.18,1.23,5.64-.65,5.18-1.12-.28-2.09-1.63-3.76-1.81-3.07-.33-4.87,1.71-7.48,1.27-1.87-.31-2.79-2.09-2.28-3.83.74-2.54,3.77-6.93,5.12-9.52.86-1.64,3.7-6.59,3.94-8.04.41-2.52-2.46-3.55-2.98-5.55-.35-1.33.49-2.92.97-4.15,2.97-7.56,7.06-14.94,10.71-22.21l-.03-.24c-1.79-1.11-3.45-3.08-2.52-5.26,1.88-4.4,10.41-.28,13.48,1.04,6.07,2.62,11.79,6.02,18.01,8.35v-.02ZM58.99,69.45c2.6-.88,4.95-2.46,7.82-2.27,1.26.08,2.82.57,4,1,1.18.43,5.07,2.64,5.98,2.38.9-.26.31-.92-.05-1.38-1.46-1.81-8.32-6.91-10.56-7.23-3.1-.44-6.1.63-8.92,1.75-1.48.58-7.03,2.96-7.14,4.54-.17,2.61,5.52,4.77,7.71,4.81-.68,1.72.51,3.62,1.73,4.81-.93.12-1.5,1.17-.29,1.24,2.6.15,6.87-2.24,8.14-4.53.49-.14,2.86.88,3.66.91,1.59.06-.2-1.57-.71-1.96-3.05-2.27-7.45-2.88-11.08-3.7-.3-.07-.34.13-.29-.37h0Z"/><path class="cls-1" d="M140.21,95.5c-.58,6.22.77,12.9,2.37,18.92.75,2.79,1.75,5.51,2.57,8.28-6.25,1.52-12.28,3.9-17.8,7.13-13.9,8.14-26.76,21.45-41.47,27.77-2.28.98-4.88,2.01-7.4,1.91,1.27-3.48,2.11-7.03,2.68-10.69.14-.92.07-2.97.52-3.65,7.96-6,15.56-12.7,19.66-21.92,3.19-7.19,3.51-15.2,2.03-22.84,2.2.26,4.03-.64,5.85-1.68,2.73,3.47,8.21,2.55,12.15,2.03,6.51-.85,12.83-2.74,18.84-5.26h0Z"/><path class="cls-1" d="M111.04,68.55c8.3-.87,8.29,10.3,6.5,15.61-1.77,5.24-7.73,12.44-13.69,13.03-3.66.36-4.16-.99-4.53-4.25-.87-7.7,1.72-23.35,11.72-24.39ZM114.94,79.64c.35-.11.51-.54.56-.86.84-5.13-2.97-8.71-7.52-4.9-1.52,1.27-3.48,4.33-3.81,6.28-.23,1.33.31.92.83,1.55,1.04,1.25,1.51,2.67.56,4.15-.89,1.38-3.25,2.08-2.17,4.12,2.76.96,6.01-2.43,6.94-4.74.93-2.3,1.14-4.51-1.01-6.25-.31-.25-.94-.28-.96-.76,2.28-5.09,6.17-3.9,6.56,1.41h0Z"/><path class="cls-1" d="M112.62,42.62c-2.29.1-4.79.85-7.05.94-1.5.06-5.63-2.51-7.16-3.37-8.74-4.85-17.02-10.76-26.73-13.68l-3.43-.89c1.85-.58,3.69-1.37,5.59-1.8,3.43-.77,6.27.32,9.5,1.47,7.97,2.82,15.13,7.33,22.01,12.07,2.45,1.69,4.95,3.42,7.27,5.25h0Z"/><path class="cls-1" d="M123.43,40.93c-2.29.24-4.65,1.07-6.95.86-9.05-5.97-17.54-12.88-27.64-17.13l-7.65-2.8c2.83-.6,6.03-1.74,8.97-1.51,4.55.35,11.24,3.8,15.14,6.15,6.54,3.95,12.83,9.01,18.16,14.43h-.02Z"/><path class="cls-1" d="M132.3,39.23c-1.22-.06-4.89,1.26-5.78.85-.5-.23-2.8-2.79-3.48-3.4-6.34-5.77-13.24-11.11-20.99-14.96l-7.38-2.89,8.01-.75c9.24-.16,20.49,9.38,26.14,15.96.5.58,3.92,4.74,3.48,5.18h0Z"/><path class="cls-1" d="M100.08,43.95c.05.25-.36.31-.53.33-6.24.88-9.63.04-15.17-2.43-8.47-3.79-15.86-9.28-25.3-10.93-.31-.05-.34.12-.29-.37,2.35-.91,4.13-2.83,6.83-2.62,1.84.15,4.42.91,6.21,1.48,10.11,3.26,18.67,10.16,28.25,14.55h0Z"/><path class="cls-1" d="M135.03,38.26c-4.96-7.92-12.51-15.41-21.18-19.4-1.07-.49-2.25-.81-3.31-1.3-.27-.12-.53.12-.42-.43,4.69.14,8.98-.67,13.38,1.35,7.36,3.37,13.02,11.07,15.72,18.39l-4.18,1.39h0Z"/><path class="cls-1" d="M80.01,94.55c.25,1.04.27,2.13.52,3.18,1.18,5.06,5.87,8.93,8.4,13.5,2.95,5.33,4.68,12.85-.71,17.31.04-2.44.27-4.75-.18-7.19-1.19-6.3-5.69-9.9-8.63-15.16-1.91-3.43-3.78-8.48.03-11.36.2-.15.24-.36.58-.28h0Z"/><path class="cls-1" d="M93.91,117.68c-.29-2.96-2.06-6.73-3.66-9.25-2.74-4.3-9.99-11.26-7.18-16.83.19-.37,1.82-2.43,2.16-2.13.45,2.28,1.11,4.55,2.21,6.61,1.52,2.85,3.89,5.19,5.59,7.94,2.82,4.58,5.23,12.12,1.93,16.96-.22.32-.61.98-1.04.96-.09-1.37.13-2.89,0-4.25h0Z"/><path class="cls-1" d="M66.12,110.98c1.74,9.21,3.81,19.3,13.12,23.99l-.12.39c-5.11,3.45-11.29-2.64-13.35-6.93-2.57-5.34-1.43-10.78-2.93-16.3l3.28-1.14h0Z"/><path class="cls-1" d="M83.29,132.13v-2.93c0-3.89-4.13-9.11-6.02-12.43-1.96-3.46-3.55-7.29-4.42-11.17l2.32-3.87c1.43,8.34,9.98,13.46,10.78,22.02.19,2.03.13,4.81-.9,6.62-.33.57-1.08,1.62-1.77,1.76h0Z"/><path class="cls-1" d="M70.94,107.59c.85,2.63,1.74,5.29,2.93,7.81,2.64,5.63,8,10.89,6.91,17.49-8.89-4.13-10.89-14.18-12.74-22.76.02-.59,1.85-1.97,2.42-2.35.16-.11.18-.27.48-.18h0Z"/><path class="cls-1" d="M60.91,113.06c.86,3.49.46,7.1,1,10.63.98,6.44,4.85,12.68,11.55,14.47-.09.27-.71.55-.97.66-2.34.99-4.06.85-6.31-.25-5.56-2.72-8.01-9.07-8.36-14.86-.2-3.36.84-6.67.18-9.99l2.9-.67h0Z"/><path class="cls-1" d="M98.54,112.87c-.19-3.82-1.79-7.52-3.78-10.75-2.11-3.42-5.3-6.43-6.36-10.4-.88-3.35-.4-6.46,1.35-9.44.2,1.08.44,2.16.77,3.21,2.79,8.85,10.2,12.04,9.36,22.95-.1,1.36-.49,3.35-1.36,4.43h.02Z"/><path class="cls-1" d="M55.89,114c1.75,7.91-6.17,14.69-3.28,22.56.86,2.34,2.19,3.59,4.25,4.91.23.15.49-.05.38.47-3.62.38-7.45-1.77-8.77-5.1-3.07-7.72,4.79-15.09,5.11-22.65l2.31-.18Z"/><path class="cls-1" d="M68.44,100.41l.39.11c.92,2.86-2.16,5.42-4.93,5.38-1.35-.02-3.89-.98-5.05-1.67-1.16-.69-3.95-3.8-5.16-3.63-1.22.17.55,2.21.96,2.66.64.69,1.49,1.11,2.02,1.88-2.67.12-6.23-1.21-6.71-4.1-.56-3.41,1.36-3.7,4.3-3.46,3.54.29,5.27,2.56,8.07,4,2.28,1.17,5,1.6,6.11-1.17Z"/><path class="cls-1" d="M51.26,114.39c-.22,5.7-4.5,10.24-5.36,15.79-.35,2.23-.42,4.68.27,6.86.32,1,1.22,2.08,1.44,2.75.24.76-1.3-.37-1.44-.48-8.28-6.43-1.41-15.18,1.61-21.83.27-.58.96-2.93,1.08-3.09.37-.48,1.84,0,2.41.02Z"/><path class="cls-1" d="M144.24,35.05l-2.68.97c-2.08-6.92-6.88-12.91-12.73-17.18,4.27,1.18,8.14,3.13,10.88,6.62,2.1,2.66,4.01,6.29,4.53,9.59h0Z"/><path class="cls-1" d="M65.73,141c-4.65,1.12-10.04-1.49-11.13-6.19-.73-3.12.54-6.29,1.29-9.29l.91,4.86c1.04,3.76,3.14,6.98,6.47,9.15.82.53,1.81.8,2.46,1.47Z"/><path class="cls-1" d="M62.07,109.1l-4.24,1.6c-2.07.52-7.73,1.67-9.23-.03-1.04-1.17-.18-2.54,1.13-2.99,1.31-.45,3.64-.24,5.08-.07,2.46.28,4.84,1.03,7.26,1.49h0Z"/><path class="cls-1" d="M48.95,97.2c-.12.54-.56.83-.81,1.38-.77,1.72-.27,3.72.64,5.29.27.46,1.11.85.06.89-4.08.15-3.53-7.56.1-7.56h0Z"/><path class="cls-1" d="M65.55,73.78c-.79,1.52-2.41,2.37-3.86,3.21-.12-.13.84-1.44.92-1.84.13-.63,0-1.31.05-1.94l2.9.57Z"/></svg>