<?xml version="1.0" encoding="UTF-8"?><svg id="Layer_1" xmlns="http://www.w3.org/2000/svg" xmlns:xlink="http://www.w3.org/1999/xlink" viewBox="0 0 595.28 181.7"><defs><style>.cls-1{fill:#fff;}.cls-2{fill:#56be8a;}.cls-3{fill:url(#linear-gradient-2);fill-opacity:.2;}.cls-4{fill:url(#linear-gradient);}</style><linearGradient id="linear-gradient" x1="63.4" y1="743.97" x2="102.64" y2="727.52" gradientTransform="translate(0 842.11) scale(1 -1)" gradientUnits="userSpaceOnUse"><stop offset="0" stop-color="#259362"/><stop offset="1" stop-color="#56be8a"/></linearGradient><linearGradient id="linear-gradient-2" x1="65.28" y1="784.61" x2="83.17" y2="750.92" gradientTransform="translate(0 842.11) scale(1 -1)" gradientUnits="userSpaceOnUse"><stop offset="0" stop-color="#010101"/><stop offset="1" stop-color="#010101" stop-opacity="0"/></linearGradient></defs><path class="cls-1" d="M162.07,101.19c.58,5.47,5.56,14.84,20,14.84,12.58,0,18.63-8.01,18.63-15.82,0-7.03-4.78-12.79-14.24-14.75l-6.83-1.46c-2.63-.49-4.39-1.95-4.39-4.3,0-2.73,2.73-4.79,6.15-4.79,5.46,0,7.51,3.61,7.9,6.45l10.83-2.44c-.58-5.18-5.17-13.87-18.83-13.87-10.34,0-17.95,7.13-17.95,15.72,0,6.74,4.19,12.31,13.46,14.36l6.34,1.47c3.71.78,5.17,2.54,5.17,4.69,0,2.54-2.05,4.79-6.34,4.79-5.66,0-8.49-3.52-8.78-7.32l-11.12,2.44Z"/><path class="cls-1" d="M242.16,114.57h12.39c-.2-1.66-.49-4.98-.49-8.69v-39.36h-12.97v27.93c0,5.57-3.32,9.47-9.07,9.47-6.05,0-8.78-4.3-8.78-9.67v-27.74h-12.97v30.37c0,10.45,6.63,18.95,18.24,18.95,5.07,0,10.63-1.95,13.27-6.45,0,1.95.19,4.2.39,5.18Z"/><path class="cls-1" d="M280.88,133.12v-23.24c2.34,3.22,7.22,5.86,13.85,5.86,13.56,0,22.63-10.74,22.63-25.3s-8.1-25-22.14-25c-7.22,0-12.58,3.22-14.73,6.93v-5.86h-12.58v66.61h12.97ZM304.58,90.54c0,8.59-5.27,13.58-11.9,13.58s-12-5.08-12-13.58,5.37-13.48,12-13.48,11.9,4.98,11.9,13.48Z"/><path class="cls-1" d="M324.71,101.48c0,7.52,6.24,14.45,16.49,14.45,7.12,0,11.7-3.32,14.14-7.13,0,1.86.2,4.49.49,5.76h11.9c-.29-1.66-.58-5.08-.58-7.62v-23.63c0-9.67-5.66-18.26-20.87-18.26-12.88,0-19.8,8.3-20.58,15.82l11.51,2.44c.39-4.2,3.51-7.81,9.17-7.81s8.1,2.83,8.1,6.25c0,1.66-.88,3.03-3.61,3.42l-11.8,1.76c-8,1.17-14.34,5.96-14.34,14.55ZM343.93,106.26c-4.19,0-6.24-2.73-6.24-5.57,0-3.71,2.63-5.57,5.95-6.06l10.83-1.66v2.15c0,8.5-5.07,11.13-10.54,11.13Z"/><path class="cls-1" d="M392.8,114.57v-5.86c2.53,4.1,7.61,7.03,14.24,7.03,13.66,0,22.63-10.84,22.63-25.39s-8.1-25.1-22.14-25.1c-7.12,0-12.39,3.13-14.53,6.54v-27.93h-12.78v70.71h12.58ZM416.7,90.44c0,8.79-5.27,13.67-11.9,13.67s-12-4.98-12-13.67,5.46-13.58,12-13.58,11.9,4.79,11.9,13.58Z"/><path class="cls-1" d="M437.02,101.48c0,7.52,6.24,14.45,16.48,14.45,7.12,0,11.71-3.32,14.14-7.13,0,1.86.2,4.49.49,5.76h11.9c-.29-1.66-.58-5.08-.58-7.62v-23.63c0-9.67-5.66-18.26-20.88-18.26-12.88,0-19.8,8.3-20.58,15.82l11.51,2.44c.39-4.2,3.51-7.81,9.17-7.81s8.1,2.83,8.1,6.25c0,1.66-.88,3.03-3.61,3.42l-11.8,1.76c-8,1.17-14.34,5.96-14.34,14.55ZM456.24,106.26c-4.19,0-6.24-2.73-6.24-5.57,0-3.71,2.63-5.57,5.95-6.06l10.83-1.66v2.15c0,8.5-5.07,11.13-10.53,11.13Z"/><path class="cls-1" d="M488.44,101.19c.58,5.47,5.56,14.84,20,14.84,12.58,0,18.63-8.01,18.63-15.82,0-7.03-4.78-12.79-14.24-14.75l-6.83-1.46c-2.63-.49-4.39-1.95-4.39-4.3,0-2.73,2.73-4.79,6.14-4.79,5.46,0,7.51,3.61,7.9,6.45l10.83-2.44c-.59-5.18-5.17-13.87-18.83-13.87-10.34,0-17.95,7.13-17.95,15.72,0,6.74,4.19,12.31,13.46,14.36l6.34,1.47c3.71.78,5.17,2.54,5.17,4.69,0,2.54-2.05,4.79-6.34,4.79-5.66,0-8.49-3.52-8.78-7.32l-11.12,2.44Z"/><path class="cls-1" d="M546.77,85.07c.29-4.39,4-9.47,10.73-9.47,7.41,0,10.54,4.69,10.73,9.47h-21.46ZM569.5,97.57c-1.56,4.3-4.88,7.32-10.93,7.32-6.44,0-11.8-4.59-12.09-10.94h34.34c0-.2.19-2.15.19-4,0-15.43-8.88-24.9-23.7-24.9-12.29,0-23.61,9.96-23.61,25.29,0,16.21,11.61,25.69,24.78,25.69,11.8,0,19.41-6.93,21.85-15.24l-10.83-3.22Z"/><path class="cls-4" d="M76.45,143.68c-2.79,3.52-8.45,1.59-8.52-2.9l-.98-65.67h44.15c8,0,12.46,9.24,7.48,15.5l-42.13,53.07Z"/><path class="cls-3" d="M76.45,143.68c-2.79,3.52-8.45,1.59-8.52-2.9l-.98-65.67h44.15c8,0,12.46,9.24,7.48,15.5l-42.13,53.07Z"/><path class="cls-2" d="M58.49,38.02c2.79-3.52,8.45-1.59,8.52,2.9l.43,65.67H23.84c-8,0-12.46-9.24-7.48-15.5l42.13-53.06Z"/></svg>