<?xml version="1.0" encoding="UTF-8"?><svg id="Layer_1" xmlns="http://www.w3.org/2000/svg" viewBox="0 0 200 200"><defs><style>.cls-1{fill:#bedda2;}</style></defs><path class="cls-1" d="M175.58,105.84H24.4l-.24-1.22V40.22c.3-4.67,2.43-8.08,7.29-8.86l138.02.17c6.15,1.86,6.01,5.81,6.09,11.18.32,19.79.52,39.86.24,59.67-.02,1.11-.43,2.29-.23,3.47ZM105.32,49.81c-1.33.19-2.18,1.31-2.75,2.42l-11.68,34.08c-1.21,4.51,4.51,6.56,6.45,2.41l11.74-34.24c.79-2.53-1.07-5.07-3.77-4.67ZM80.64,53.84c-2.31.26-4.57,3.72-6.11,5.34-2.47,2.6-6.22,5.99-8.28,8.76-1.36,1.83-1.28,3.24.1,5.02,2.21,2.87,5.64,5.95,8.18,8.64,1.22,1.29,3.04,3.92,4.48,4.72,3.85,2.15,7.15-2.55,4.05-5.62l-9.52-10.23c-.03-.15,1.63-2.04,1.89-2.33,2.38-2.65,5.43-5.36,7.63-8.07.83-1.02,1.38-1.85,1.21-3.23-.2-1.67-1.9-3.2-3.62-3.01ZM118.78,53.84c-3.05.24-4.12,4.22-1.86,6.24l9.52,10.23c.02.14-1.42,1.83-1.66,2.1-2.44,2.75-5.57,5.47-7.86,8.29-3.42,4.22,1.41,8.32,5.06,4.84,3.37-4.42,8.31-8.24,11.65-12.58,1.44-1.86,1.43-3.29,0-5.15-4.06-3.79-7.56-8.66-11.54-12.46-.86-.83-2.06-1.61-3.31-1.51Z"/><path class="cls-1" d="M24.78,112.6l150.44-.02.32.36c0,.67.23,1.31.27,1.97.08,1.23-.24,2.31-.24,3.36,0,7.02,2.03,16.22-7.72,17.18H31.91c-4.8-.49-7.43-3.73-7.75-8.41-.31-4.51.16-9.5.12-14.03l.49-.42Z"/><path class="cls-1" d="M60.28,168.64c-.38-3.98,1.72-8.11,5.46-9.69,1.04-.44,2.74-.85,3.86-.87,1-.01,3.77.68,4.53-.05.19-.18,1.44-2.88,1.66-3.38,1.81-4.02,2.91-8.3,3.76-12.62h40.85c1.04,5.59,2.74,10.96,5.41,16.01,2.23.63,4.55-.13,6.74.32,4.59.95,7.62,5.69,7.12,10.26H60.28Z"/></svg>